<svg xmlns="http://www.w3.org/2000/svg" viewBox="0 0 298.67 512" id="iphone-8"><g data-name="Layer 2"><path d="M238.48,512H60.19C27,512,0,484.29,0,450.23V61.78C0,27.72,27,0,60.19,0H238.48c33.19,0,60.19,27.72,60.19,61.78v76.51a10.67,10.67,0,0,1-21.34,0V61.78c0-22.3-17.42-40.45-38.85-40.45H60.19c-21.43,0-38.86,18.15-38.86,40.45V450.23c0,22.3,17.43,40.44,38.86,40.44H238.48c21.43,0,38.85-18.14,38.85-40.44V224.39a10.67,10.67,0,0,1,21.34,0V450.23C298.67,484.29,271.67,512,238.48,512Z"></path><path d="M149.33 426.67a10.67 10.67 0 1 1-10.66 10.67 10.69 10.69 0 0 1 10.66-10.67m0-21.33a32 32 0 1 0 32 32 32 32 0 0 0-32-32zM181.33 64h-64a10.67 10.67 0 0 1 0-21.33h64a10.67 10.67 0 1 1 0 21.33zM74.67 42.67A10.67 10.67 0 1 0 85.33 53.34 10.67 10.67 0 0 0 74.67 42.67z"></path><circle cx="288" cy="181.34" r="10.67" fill="#fff"></circle><path d="M288,170.67a10.67,10.67,0,1,0,10.67,10.67A10.67,10.67,0,0,0,288,170.67Z"></path></g></svg>