<svg xmlns="http://www.w3.org/2000/svg" viewBox="0 0 32 32" id="vacuum-cleaner"><g data-name="20-vacuum-cleaner"><path fill="none" stroke="#101820" stroke-linecap="round" stroke-linejoin="round" stroke-width="2" d="M7,23h4a0,0,0,0,1,0,0v4a0,0,0,0,1,0,0H3a0,0,0,0,1,0,0v0A4,4,0,0,1,7,23Z"></path><circle cx="25" cy="23" r="4" fill="none" stroke="#101820" stroke-linecap="round" stroke-linejoin="round" stroke-width="2"></circle><path fill="none" stroke="#101820" stroke-linecap="round" stroke-linejoin="round" stroke-width="2" d="M29,17V13H21a6,6,0,0,0-6,6v6h2"></path><path fill="none" stroke="#101820" stroke-linecap="round" stroke-linejoin="round" stroke-width="2" d="M21,13V8a3,3,0,0,0-3-3h0A3,3,0,0,0,15.2,6.8L8,23"></path></g></svg>